<?xml version='1.0' encoding='ASCII' standalone='yes'?>
<svg xmlns="http://www.w3.org/2000/svg" xmlns:xlink="http://www.w3.org/1999/xlink" version="1.1" width="215.0px" viewBox="0 0 215.0px 215.0px" height="215.0px">
  <g>
    <path d="M0 107.5 L215 107.5" stroke-width="215px" stroke="#8E2ABE"/>
    <g transform="translate(39.21999717454263, 0) scale(1) translate(0, 0) scale(0.1518683336865155) ">
      <g fill="none" fill-rule="evenodd" transform="translate(27 970)">
        <path d="m845.2 340.4v-.4c0-73.2-43.7-139.4-111-168.2l-116.6-49.8c-61.6-26.4-127.9-39.9-195-39.9-67 0-133.3 13.6-195 39.9l-116.6 49.8c-67.3 28.8-111 95-111 168.2v105.6h845.2z" fill="#4242f4"/>
        <path d="m181.1 284.1-8.9 142.4m491.9-142.4 5.4 142.4" stroke="#333" stroke-linecap="round" stroke-width="12.523"/>
        <path d="m521.3 100.9h-203.2l-30.2 340.4h263.6z" fill="#fff"/>
        <path d="m422.6 109c31.5 0 63.2 3.2 94.1 9.5s61.3 15.8 90.3 28.2l116.6 49.9c57.5 24.6 94.6 80.9 94.6 143.4v78.6h-791.2v-78.6c0-62.5 37.1-118.8 94.6-143.4l116.6-49.9c29-12.4 59.4-21.9 90.3-28.2s62.6-9.5 94.1-9.5zm0-27c-67 0-133.3 13.6-195 39.9l-116.6 49.9c-67.3 28.8-111 95-111 168.2v105.6h845.2v-105.6c0-73.2-43.7-139.4-111-168.2l-116.6-49.8c-61.7-26.4-128-40-195-40z" fill="#333" fill-rule="nonzero"/>
        <path d="m600.8 46.9c-33.7-24.7-89.6-46.2-181.8-46.2-94.3 0-149.2 22.6-181.1 47.9-31.7 25.2-39.1 70.1-18.4 104.9 10.1 16.9 18.7 36.9 16.5 53.7h72.7l9.4-106.2h203.1l9.4 106.2h73.9s4.5-29.9 19.2-56.8c19.4-35.4 9.6-79.8-22.9-103.5z" fill="#4242f4" fill-rule="nonzero"/>
        <g stroke="#333">
          <path d="m604.6 207.1s4.2-28.4 18.1-54.8c19.8-37.6 9.2-84.1-25.8-108.2-34.1-23.5-89.1-43.5-177.9-43.5-90.4 0-144.6 20.7-177 44.8-34.1 25.3-43.3 72.4-21.8 109 9.8 16.6 18.1 36.2 15.8 52.6" stroke-width="27"/>
          <path d="m323.9 113.7-36 325m227.5-325 36.1 325" stroke-linecap="round" stroke-width="12.523"/>
          <path d="m517.1 113.7c0 1.1.1 19.6.1 20.7 0 53.7-43.6 97.3-97.4 97.3s-97.4-43.6-97.4-97.3v-20.7" opacity=".15" stroke-width="10.818"/>
          <path d="m569.4 207.1s15.3 58.9 15.3 82m-296.8-92.5s-35.8 83.4-37.7 155.9" stroke-linecap="round" stroke-width="12.523"/>
        </g>
        <circle cx="250.2" cy="352.5" fill="#333" fill-rule="nonzero" r="14.4"/>
        <circle cx="584.7" cy="289.1" fill="#333" fill-rule="nonzero" r="14.4"/>
      </g>
    </g>
    <g transform="translate(39.21999717454263, 0) scale(1) translate(0, 0) scale(0.1518683336865155) ">
      <g fill="none" fill-rule="evenodd">
        <path d="m163 774.9c-25.4-6.1-44.4-29-44.4-56.2v-37.5c0-27.3 19-50.2 44.4-56.2z" fill="#dbdbdb"/>
        <path d="m149.5 645.9v108c-10.6-8.1-17.5-20.9-17.5-35.3v-37.5c.1-14.3 6.9-27.1 17.5-35.2zm26.9-36c-39.4 0-71.3 31.9-71.3 71.3v37.5c0 39.4 31.9 71.3 71.3 71.3z" fill="#333" fill-rule="nonzero"/>
        <path d="m736.2 624.2c25.4 6.1 44.4 29 44.4 56.2v37.5c0 27.3-19 50.2-44.4 56.2z" fill="#ae7242"/>
        <path d="m749.7 645.2c10.6 8.1 17.5 20.9 17.5 35.3v37.5c0 14.4-6.9 27.2-17.5 35.3zm-26.9-36v180c39.4 0 71.3-31.9 71.3-71.3v-37.5c-.1-39.3-32-71.2-71.3-71.2z" fill="#333" fill-rule="nonzero"/>
        <path d="m163 774.2c-25.4-6.1-44.4-29-44.4-56.2v-37.5c0-27.3 19-50.2 44.4-56.2z" fill="#ae7242"/>
        <path d="m149.5 645.2v108c-10.6-8.1-17.5-20.9-17.5-35.3v-37.5c.1-14.3 6.9-27.1 17.5-35.2zm26.9-36c-39.4 0-71.3 31.9-71.3 71.3v37.5c0 39.4 31.9 71.3 71.3 71.3z" fill="#333" fill-rule="nonzero"/>
        <path d="m148 570.4h603.7v241.5h-603.7z"/>
      </g>
    </g>
    <g transform="translate(39.21999717454263, 0) scale(1) translate(0, 0) scale(0.1518683336865155) ">
      <g fill="none" fill-rule="evenodd">
        <g fill-rule="nonzero">
          <path d="m446.6 1170.7c-33 0-62.1-21.1-72.2-52.6l-15.3-47.5 37.8-126.6 100.9.3 36.4 126.1-15.6 47.9c-10.2 31.2-39.1 52.3-72 52.3z" fill="#ae7242"/>
          <path d="m407 957.6 80.7.2 32.5 112.4-14.3 43.9c-8.4 25.7-32.1 43-59.1 43h-.1c-27.2 0-51-17.4-59.3-43.2l-14-43.5zm-20.1-27.1-41.9 140.2 16.6 51.5c11.9 36.9 46.3 62 85.1 62h.2c38.6-.1 72.8-24.9 84.8-61.7l16.9-51.8-40.6-139.9z" fill="#333"/>
        </g>
        <path d="m148.5 280.2h602.6v241.5h-602.6z"/>
        <g fill-rule="nonzero">
          <path d="m451.7 1001.3c-8.7 0-17.2-1.6-25.3-4.9l-60.2-24.2c-34-13.7-65.5-32.6-93.5-56.2-28.1-23.6-52.1-51.4-71.4-82.5-26-42-39.8-90.3-39.8-139.7v-246.7c0-28.9 10.4-56.8 29.3-78.7 18.9-21.8 45.1-36.2 73.6-40.3 61.1-8.9 123.4-13.4 185.1-13.4s124 4.5 185.1 13.4c28.6 4.1 54.7 18.5 73.6 40.3s29.3 49.8 29.3 78.7v246.7c0 48-13 95.1-37.7 136.3l-.8 1.4c-19.4 32.4-43.8 61.2-72.5 85.6-28.7 24.5-61 43.9-96 57.9l-53.9 21.5c-7.8 3.2-16.2 4.8-24.9 4.8z" fill="#ae7242"/>
          <path d="m449.6 328.3c61.1 0 122.7 4.4 183.2 13.2h.2c25.3 3.7 48.5 16.4 65.2 35.8 16.8 19.4 26 44.2 26 69.8v246.7c0 45.5-12.4 90.3-35.8 129.3l-.8 1.4c-18.6 31.1-42 58.8-69.6 82.3s-58.6 42.2-92.3 55.7l-53.9 21.5c-6.4 2.6-13.2 3.9-20.1 3.9-7 0-13.8-1.3-20.2-3.9l-60.2-24.2c-32.7-13.1-62.9-31.3-89.9-54s-50-49.4-68.6-79.3c-24.7-39.9-37.7-85.7-37.7-132.6v-246.8c0-25.6 9.2-50.5 26-69.8 16.8-19.4 40-32.1 65.4-35.8 60.4-8.8 122-13.2 183.1-13.2zm0-27c-62.5 0-125 4.5-187.1 13.5-65.7 9.5-114.5 65.9-114.5 132.3v246.7c0 51.9 14.5 102.7 41.8 146.8 40.3 65.1 100.3 115.6 171.4 144.1l60.2 24.2c9.7 3.9 20 5.9 30.3 5.9 10.2 0 20.4-1.9 30.1-5.8l53.9-21.5c73.1-29.2 134.6-81.6 175.1-149.1l.8-1.4c25.9-43.3 39.6-92.8 39.6-143.2v-246.7c0-66.4-48.8-122.8-114.5-132.3-62.1-9-124.6-13.5-187.1-13.5z" fill="#333"/>
        </g>
        <path d="m148.5 280.2h602.6v241.5h-602.6z"/>
      </g>
    </g>
    <g transform="translate(39.21999717454263, 0) scale(1) translate(0, 0) scale(0.1518683336865155) ">
      <path d="m358.533 340.917s-12.284-162.581-92.973-166.667c-80.718-4.099-182.473-21.054-192.999-33.922-11.694 23.401-21.631 60.242-30.991 94.151-9.365 33.91-8.775 121.641-8.775 121.641s-33.928-126.322-32.766-170.777c1.162-44.431 23.984-95.904 64.918-106.425 36.263-67.844 208.214-88.897 276.63 7.602 68.43 96.487 16.956 254.397 16.956 254.397z" stroke="#333" stroke-linejoin="round" stroke-width="15.213" transform="matrix(1.79497 0 0 1.75141 104.204 151.188)"/>
    </g>
    <g transform="translate(39.21999717454263, 0) scale(1) translate(0, 0) scale(0.1518683336865155) ">
      <g fill="none" fill-rule="evenodd">
        <path d="m147.7 510.5h603.7v241.5h-603.7z"/>
        <path d="m619.6 911.5-104.2 44.5c-21.6 9.2-46-5.2-48.2-28.6-.9-9-8.5-16-17.5-16-9.1 0-16.7 6.9-17.5 16-2.2 23.4-26.6 37.9-48.2 28.6l-104.2-44.6v9.9c0 31.3 16.3 61.6 46.1 85.8 25 20.3 60.5 33.7 99.6 37.7 16 1.6 32.4 1.6 48.4 0 39.1-4 74.6-17.4 99.6-37.7 29.8-24.2 46.1-54.5 46.1-85.8z" fill="#000" fill-rule="nonzero" stroke="#333" stroke-width="14.716"/>
      </g>
    </g>
    <g transform="translate(39.21999717454263, 0) scale(1) translate(0, 0) scale(0.1518683336865155) ">
      <g fill="none" fill-rule="evenodd">
        <path d="M528.8 770.1l-59.1-12.7c-4.8-1-10.1.7-14.8 4.5-3 2.4-7.5 2.4-10.5 0-4.7-3.8-10-5.5-14.8-4.5l-59.1 12.7c-36.8 7.9-67 33.3-85.5 71.9l160-34.4c1.7-.4 3.2-1.1 4.6-2 1.4.9 2.9 1.6 4.6 2L614.3 842c-18.5-38.6-48.7-64-85.5-71.9z" stroke="#333" stroke-width="14.716" fill="#000" fill-rule="nonzero"/>
        <path d="M147.7 540.5h603.7V782H147.7z"/>
      </g>
    </g>
    <g transform="translate(39.21999717454263, 0) scale(1) translate(0, 0) scale(0.1518683336865155) ">
      <path d="m453.7 878.9h-3.6c-38-.6-54.3-13.5-68.5-40.1l138.4 2.2c-16.7 30.1-31.7 37.9-66.3 37.9z" fill="#fff"/>
      <path d="m396.3 847 49.3.8 60.1.9c-4.3 6.1-8.5 10.5-13 13.5-8.6 6-20.3 8.5-38.9 8.5h-3.4c-19-.3-31.9-3.7-41.9-11.1-4.4-3.1-8.4-7.2-12.2-12.6m-27.8-16.6c17.5 38 36 55.8 81.5 56.5h3.7c42.7 0 59.1-12.4 79.5-54l-87.4-1.4z" fill="#333"/>
      <path d="m505.9 929.5c-2.5-3.9-6.4-6.9-10.3-9.5-4-2.5-8.3-4.5-12.7-6.1-8.9-3.2-18.2-4.8-27.5-5.3-9.3-.4-18.8.4-27.9 2.8-4.6 1.2-9 2.8-13.2 5-2.1 1.1-4.1 2.3-6 3.7s-3.7 3-5.1 4.8c5.3 1.5 9.7 2.6 14.1 3.7 4.3 1 8.5 1.9 12.7 2.6 8.2 1.4 16.3 2.3 24.4 2.6 5.4.2 10.7.3 16.1 0 2.8-.1 5.5-.3 8.4-.5 4.2-.3 8.4-.9 12.8-1.5 4.3-.6 8.8-1.3 14.2-2.3z" fill="#333" opacity=".2"/>
      <path d="m147.7 570.5h603.7v241.5h-603.7z" fill="none"/>
    </g>
    <g transform="translate(39.21999717454263, 0) scale(1) translate(0, 0) scale(0.1518683336865155) ">
      <path d="m455.4 763.1v-171.5c-4.9 2.6-8.9 8.4-10.7 16l-.6 1.2c-6.5 12.6-11.6 25.9-15.6 39.5-2.3 7.7-5.1 15-8.4 21.8-25.3 51.1-17.3 67.8 32.3 92.6.6.2 2.5.3 3 .4z" fill="#333" opacity=".2"/>
      <g fill="none">
        <path d="m416.1 725.9c8.9 18.1 39.3 29.8 39.3 29.8s30.4-11.7 39.3-29.8" stroke="#333" stroke-miterlimit="10" stroke-width="16.163"/>
        <path d="m147.7 570.5h603.7v241.5h-603.7z"/>
      </g>
    </g>
    <g transform="translate(39.21999717454263, 0) scale(1) translate(0, 0) scale(0.1518683336865155) ">
      <style>.st1{fill:#333}.st2{fill:none;stroke:#333;stroke-width:7.2709;stroke-miterlimit:10}</style>
      <path fill="none" d="M147.7 570.5h603.7V812H147.7z"/>
      <path class="st1" d="M378.4 589.8c-10.1-4.8-21.3-8-32.8-9.9-11.5-1.9-23.4-2.4-35.2-1.9-11.8.6-23.7 2.2-35.1 5.2-5.7 1.5-11.3 3.3-16.6 5.6-2.7 1.1-5.2 2.4-7.7 3.8-2.4 1.4-4.8 3-6.8 4.7l-.1.1c-2 1.7-5 1.4-6.7-.6-1.6-1.9-1.4-4.8.4-6.5 2.5-2.4 5.2-4.4 7.9-6.2 2.8-1.8 5.6-3.4 8.5-4.9 5.8-2.9 11.8-5.3 17.8-7.3 12.1-4 24.7-6.5 37.3-7.9 12.7-1.3 25.5-1.6 38.4-.3 12.8 1.3 25.7 4.1 38.2 9.1 4.8 1.9 7.1 7.3 5.2 12.1-1.9 4.8-7.3 7.1-12.1 5.2l-.6-.3z"/>
      <ellipse transform="rotate(-11.467 316.285 649.689)" class="st1" cx="316.3" cy="649.8" rx="41.2" ry="29.6"/>
      <path class="st2" d="M382.1 666.6c-10.2 16.4-30.3 29.9-55.3 35"/>
      <ellipse transform="rotate(-11.467 316.285 649.689)" class="st1" cx="316.3" cy="649.8" rx="41.2" ry="29.6"/>
      <path class="st1" d="M512.7 572.8c12.4-5 25.3-7.7 38.2-9.1 12.9-1.3 25.7-1.1 38.4.3 12.7 1.4 25.2 3.9 37.3 7.9 6.1 2 12 4.4 17.8 7.3 2.9 1.4 5.7 3.1 8.5 4.9 2.8 1.8 5.4 3.9 7.9 6.2 1.9 1.8 2 4.8.2 6.7-1.7 1.8-4.6 2-6.5.4l-.1-.1c-2.1-1.7-4.4-3.3-6.8-4.7-2.5-1.4-5-2.7-7.7-3.8-5.3-2.3-10.9-4.1-16.6-5.6-11.4-3-23.3-4.6-35.1-5.2-11.8-.5-23.7 0-35.2 1.9-11.5 1.9-22.7 5.1-32.8 9.9-4.6 2.2-10.2.2-12.4-4.4s-.2-10.2 4.4-12.4c.2 0 .4-.1.5-.2z"/>
      <ellipse transform="rotate(-78.533 582.287 649.781)" class="st1" cx="582.2" cy="649.8" rx="29.6" ry="41.2"/>
      <path class="st2" d="M516.4 666.6c10.2 16.4 30.3 29.9 55.3 35"/>
      <ellipse transform="rotate(-78.533 582.287 649.781)" class="st1" cx="582.2" cy="649.8" rx="29.6" ry="41.2"/>
    </g>
    <g transform="translate(39.21999717454263, 0) scale(1) translate(0, 0) scale(0.1518683336865155) ">
      <style>.st-1{opacity:.6;fill:#fff}.st2{fill:none;stroke:#333;stroke-width:14.7164;stroke-linecap:round;stroke-miterlimit:10}</style>
      <path fill="none" d="M27 570.5h845.2v239.3H27z"/>
      <path class="st-1" d="M685 599.9H461.7l8.4 75.1c2 17.7 17 31.1 34.8 31.1h151.5c9.5 0 17.5-7.1 18.5-16.6l10.1-89.6z"/>
      <path class="st2" d="M686.1 599.9h73.7"/>
      <path class="st-1" d="M211.4 599.9h223.3l-8.4 75.1c-2 17.7-17 31.1-34.8 31.1H239.9c-9.5 0-17.5-7.1-18.5-16.6l-10-89.6z"/>
      <path class="st2" d="M685 599.9H461.7l8.4 75.1c2 17.7 17 31.1 34.8 31.1h151.5c9.5 0 17.5-7.1 18.5-16.6l10.1-89.6zm-473.6 0h223.3l-8.4 75.1c-2 17.7-17 31.1-34.8 31.1H239.9c-9.5 0-17.5-7.1-18.5-16.6l-10-89.6zm-1.1 0h-73.7m278.5 0h65.1"/>
    </g>
  </g>
</svg>
